<svg width="363" height="124" viewBox="0 0 363 124" fill="none" xmlns="http://www.w3.org/2000/svg">
<path d="M121.717 81.263C121.474 79.2677 121.279 77.102 121.133 74.766C121.036 72.3813 120.987 70.167 120.987 68.123C120.987 64.8623 121.084 61.7477 121.279 58.779C121.522 55.7617 121.79 52.6227 122.082 49.362C122.423 46.0527 122.788 42.4757 123.177 38.631C123.566 34.7377 123.907 30.2603 124.199 25.199C124.832 25.199 125.732 25.3937 126.9 25.783C128.117 26.1237 129.333 26.5373 130.55 27.024C131.767 27.5107 132.837 28.0217 133.762 28.557C134.687 29.0437 135.222 29.4573 135.368 29.798C134.541 31.696 133.786 34.2023 133.105 37.317C132.472 40.383 131.937 43.741 131.499 47.391C131.061 51.041 130.72 54.7883 130.477 58.633C130.234 62.4777 130.112 66.079 130.112 69.437C130.112 70.9943 130.136 72.5273 130.185 74.036C130.234 75.5447 130.307 76.9317 130.404 78.197C131.426 76.6883 132.594 74.547 133.908 71.773C135.271 68.9503 136.658 65.8113 138.069 62.356C139.529 58.9007 140.965 55.2993 142.376 51.552C143.836 47.756 145.174 44.1547 146.391 40.748C147.608 37.2927 148.63 34.2023 149.457 31.477C150.333 28.703 150.941 26.6103 151.282 25.199C151.915 25.199 152.839 25.3937 154.056 25.783C155.321 26.1237 156.538 26.5373 157.706 27.024C158.923 27.5107 159.993 28.0217 160.918 28.557C161.843 29.0437 162.354 29.4573 162.451 29.798C161.624 31.696 160.869 34.2023 160.188 37.317C159.555 40.383 159.02 43.741 158.582 47.391C158.144 51.041 157.803 54.7883 157.56 58.633C157.317 62.4777 157.195 66.079 157.195 69.437C157.195 70.8483 157.195 72.2597 157.195 73.671C157.244 75.0337 157.317 76.2747 157.414 77.394C158.971 73.3547 160.577 69.364 162.232 65.422C163.935 61.4313 165.614 57.6353 167.269 54.034C168.924 50.384 170.53 47.0017 172.087 43.887C173.644 40.7237 175.08 37.9253 176.394 35.492C177.708 33.01 178.852 30.966 179.825 29.36C180.798 27.754 181.553 26.6833 182.088 26.148C183.207 26.294 184.351 26.7077 185.519 27.389C186.736 28.0217 187.806 28.849 188.731 29.871C187.32 30.9903 185.714 32.8397 183.913 35.419C182.112 37.9497 180.263 40.894 178.365 44.252C176.467 47.61 174.545 51.187 172.598 54.983C170.7 58.779 168.924 62.4777 167.269 66.079C165.614 69.6803 164.13 73.0383 162.816 76.153C161.551 79.2677 160.577 81.774 159.896 83.672C158.631 84.256 157.39 84.548 156.173 84.548C154.616 84.3533 153.131 83.964 151.72 83.38C150.357 82.796 149.384 82.0903 148.8 81.263C148.654 80.4843 148.532 79.584 148.435 78.562C148.338 77.4913 148.265 76.445 148.216 75.423C148.167 74.401 148.119 73.4277 148.07 72.503C148.07 71.5297 148.07 70.7023 148.07 70.021C148.07 65.6897 148.24 61.2853 148.581 56.808C148.922 52.282 149.335 47.4397 149.822 42.281C148.703 45.5903 147.462 49.143 146.099 52.939C144.736 56.735 143.301 60.5067 141.792 64.254C140.332 67.9527 138.823 71.5053 137.266 74.912C135.757 78.27 134.273 81.19 132.813 83.672C131.548 84.256 130.307 84.548 129.09 84.548C127.533 84.3533 126.048 83.964 124.637 83.38C123.274 82.796 122.301 82.0903 121.717 81.263ZM204.229 48.778C204.034 51.7953 203.499 54.399 202.623 56.589C201.747 58.7303 200.481 60.6283 198.827 62.283C197.221 63.889 195.25 65.349 192.914 66.663C190.578 67.977 187.852 69.2423 184.738 70.459C184.738 70.751 184.713 71.0673 184.665 71.408C184.665 71.7 184.665 72.0163 184.665 72.357C184.665 72.9897 184.713 73.6467 184.811 74.328C184.908 75.0093 185.078 75.642 185.322 76.226C185.565 76.81 185.906 77.2967 186.344 77.686C186.782 78.0267 187.341 78.197 188.023 78.197C189.337 78.197 190.626 77.905 191.892 77.321C193.157 76.737 194.349 76.0313 195.469 75.204C196.637 74.328 197.707 73.4033 198.681 72.43C199.703 71.408 200.603 70.4833 201.382 69.656C201.868 70.094 202.282 70.5077 202.623 70.897C200.433 73.817 198.024 76.2503 195.396 78.197C192.816 80.095 190.359 81.3117 188.023 81.847C184.665 81.4577 182.037 80.241 180.139 78.197C178.289 76.1043 177.365 73.598 177.365 70.678C177.365 68.6827 177.632 66.663 178.168 64.619C178.752 62.5263 179.53 60.531 180.504 58.633C181.526 56.6863 182.694 54.8613 184.008 53.158C185.37 51.4547 186.806 49.9703 188.315 48.705C189.872 47.4397 191.454 46.442 193.06 45.712C194.714 44.982 196.345 44.617 197.951 44.617C200.189 44.909 202.282 46.296 204.229 48.778ZM199.192 51.187C197.878 51.3817 196.515 51.917 195.104 52.793C193.692 53.669 192.354 54.837 191.089 56.297C189.872 57.757 188.753 59.4603 187.731 61.407C186.709 63.3537 185.906 65.4463 185.322 67.685C189.215 65.7383 192.451 63.3537 195.031 60.531C197.61 57.6597 198.997 54.545 199.192 51.187ZM232.793 49.508C233.28 49.508 233.84 49.6053 234.472 49.8C235.154 49.946 235.762 50.165 236.297 50.457C236.833 50.7003 237.271 50.968 237.611 51.26C238.001 51.552 238.195 51.8197 238.195 52.063C237.222 54.107 236.322 56.1753 235.494 58.268C234.667 60.312 233.961 62.283 233.377 64.181C232.793 66.079 232.331 67.8553 231.99 69.51C231.698 71.1647 231.552 72.6003 231.552 73.817C231.552 75.1797 231.698 76.3233 231.99 77.248C232.282 78.124 232.769 78.7567 233.45 79.146C232.866 79.5353 232.112 79.8517 231.187 80.095C230.263 80.3383 229.435 80.46 228.705 80.46C226.077 80.46 224.763 78.6593 224.763 75.058C224.763 72.284 225.688 68.488 227.537 63.67C226.564 65.9087 225.445 68.0257 224.179 70.021C222.914 71.9677 221.624 73.6953 220.31 75.204C218.996 76.7127 217.658 77.9537 216.295 78.927C214.981 79.8517 213.765 80.4113 212.645 80.606C210.845 80.5087 209.385 79.657 208.265 78.051C207.146 76.3963 206.586 74.3037 206.586 71.773C206.586 69.0477 207.17 66.1763 208.338 63.159C209.506 60.1417 210.991 57.3433 212.791 54.764C214.641 52.1847 216.636 50.0433 218.777 48.34C220.919 46.588 222.987 45.6633 224.982 45.566C225.469 45.712 226.004 46.004 226.588 46.442C227.221 46.88 227.805 47.391 228.34 47.975C228.924 48.559 229.411 49.1673 229.8 49.8C230.19 50.384 230.409 50.895 230.457 51.333C228.511 51.625 226.491 52.574 224.398 54.18C222.354 55.786 220.481 57.7327 218.777 60.02C217.123 62.2587 215.76 64.6677 214.689 67.247C213.619 69.8263 213.083 72.2353 213.083 74.474C213.083 75.3987 213.424 75.9827 214.105 76.226C215.517 75.934 217.147 74.7417 218.996 72.649C220.846 70.5077 223.084 67.2227 225.712 62.794C226.199 61.918 226.734 60.9447 227.318 59.874C227.951 58.8033 228.584 57.684 229.216 56.516C229.849 55.348 230.457 54.18 231.041 53.012C231.674 51.7953 232.258 50.6273 232.793 49.508ZM244.993 51.041C244.75 50.749 244.531 50.1407 244.336 49.216C244.142 48.2427 244.044 47.4153 244.044 46.734C245.31 46.8313 246.526 46.9287 247.694 47.026C248.862 47.0747 249.933 47.1233 250.906 47.172C251.636 45.712 252.415 44.2763 253.242 42.865C254.118 41.405 254.946 40.091 255.724 38.923C256.552 37.7063 257.306 36.6843 257.987 35.857C258.717 35.0297 259.277 34.4943 259.666 34.251C260.153 34.251 260.761 34.3483 261.491 34.543C262.27 34.689 263.049 34.908 263.827 35.2C264.606 35.4433 265.312 35.711 265.944 36.003C266.577 36.295 267.015 36.587 267.258 36.879C265.798 38.7283 264.533 40.456 263.462 42.062C262.44 43.6193 261.321 45.42 260.104 47.464C261.078 47.464 262.051 47.4397 263.024 47.391C264.046 47.3423 265.068 47.2693 266.09 47.172C266.334 47.4153 266.528 47.7317 266.674 48.121C266.82 48.4617 266.893 48.8267 266.893 49.216C264.509 50.092 261.613 50.5787 258.206 50.676C256.99 53.012 255.895 55.348 254.921 57.684C253.997 59.9713 253.194 62.1857 252.512 64.327C251.88 66.4683 251.369 68.488 250.979 70.386C250.639 72.284 250.468 73.9873 250.468 75.496C250.468 77.6373 251.271 78.8297 252.877 79.073C254.337 78.8783 255.724 78.5133 257.038 77.978C258.352 77.4427 259.52 76.7613 260.542 75.934C260.834 76.372 261.005 76.737 261.053 77.029C260.761 77.467 260.25 77.978 259.52 78.562C258.839 79.146 258.085 79.7057 257.257 80.241C256.43 80.825 255.627 81.3117 254.848 81.701C254.07 82.0903 253.486 82.3093 253.096 82.358C251.88 82.3093 250.663 82.0417 249.446 81.555C248.23 81.0683 247.11 80.46 246.088 79.73C245.115 79 244.312 78.197 243.679 77.321C243.047 76.3963 242.73 75.496 242.73 74.62C242.73 73.452 242.876 71.992 243.168 70.24C243.509 68.4393 243.971 66.4927 244.555 64.4C245.139 62.3073 245.821 60.1173 246.599 57.83C247.378 55.5427 248.23 53.2797 249.154 51.041H244.993ZM266.278 77.759C266.278 76.0557 266.448 74.0603 266.789 71.773C267.129 69.437 267.616 66.955 268.249 64.327C268.93 61.699 269.709 58.9493 270.585 56.078C271.509 53.2067 272.531 50.3353 273.651 47.464C274.624 44.8847 275.743 42.281 277.009 39.653C278.323 37.025 279.734 34.4457 281.243 31.915C282.751 29.3843 284.309 26.9753 285.915 24.688C287.569 22.4007 289.224 20.308 290.879 18.41C291.657 18.41 292.485 18.5073 293.361 18.702C294.285 18.8967 295.161 19.1643 295.989 19.505C296.865 19.797 297.643 20.162 298.325 20.6C299.055 21.038 299.639 21.476 300.077 21.914C296.427 25.6613 293.142 29.4573 290.222 33.302C287.302 37.098 284.99 40.675 283.287 44.033C282.362 45.8823 281.51 47.61 280.732 49.216C280.002 50.822 279.32 52.428 278.688 54.034C278.055 55.5913 277.471 57.173 276.936 58.779C276.449 60.3363 275.987 61.991 275.549 63.743C284.893 51.8197 291.828 45.858 296.354 45.858C297.619 45.858 298.982 46.2717 300.442 47.099C301.902 47.9263 303.191 49.0457 304.311 50.457C302.802 52.1117 301.245 54.107 299.639 56.443C298.033 58.779 296.548 61.1393 295.186 63.524C293.872 65.86 292.777 68.05 291.901 70.094C291.073 72.0893 290.66 73.5737 290.66 74.547C290.66 75.0337 290.733 75.3743 290.879 75.569C291.025 75.715 291.341 75.788 291.828 75.788C292.558 75.788 293.142 75.6907 293.58 75.496C294.018 75.3013 294.285 75.204 294.383 75.204C294.626 75.5933 294.772 75.861 294.821 76.007C294.869 76.153 294.894 76.2747 294.894 76.372C294.894 76.5667 294.602 76.8587 294.018 77.248C293.434 77.5887 292.728 77.9537 291.901 78.343C291.122 78.6837 290.343 79 289.565 79.292C288.786 79.584 288.202 79.73 287.813 79.73C287.326 79.73 286.839 79.584 286.353 79.292C285.866 79.0487 285.428 78.708 285.039 78.27C284.698 77.832 284.406 77.3453 284.163 76.81C283.968 76.2747 283.871 75.715 283.871 75.131C283.871 74.401 284.065 73.3303 284.455 71.919C284.893 70.459 285.477 68.78 286.207 66.882C286.937 64.9353 287.813 62.8183 288.835 60.531C289.857 58.2437 290.952 55.9077 292.12 53.523C292.12 53.3283 292.022 53.231 291.828 53.231C291.682 53.231 291.292 53.4257 290.66 53.815C290.076 54.2043 289.516 54.5937 288.981 54.983C287.229 56.297 285.452 57.9273 283.652 59.874C281.9 61.772 280.172 63.8647 278.469 66.152C276.814 68.4393 275.232 70.8727 273.724 73.452C272.264 75.9827 270.998 78.5377 269.928 81.117C269.782 81.4577 269.563 81.774 269.271 82.066C268.979 82.358 268.735 82.504 268.541 82.504C268.395 82.504 268.176 82.3337 267.884 81.993C267.64 81.6523 267.397 81.2143 267.154 80.679C266.959 80.1923 266.764 79.6813 266.57 79.146C266.375 78.6107 266.278 78.1483 266.278 77.759ZM330.196 48.778C330.002 51.7953 329.466 54.399 328.59 56.589C327.714 58.7303 326.449 60.6283 324.794 62.283C323.188 63.889 321.217 65.349 318.881 66.663C316.545 67.977 313.82 69.2423 310.705 70.459C310.705 70.751 310.681 71.0673 310.632 71.408C310.632 71.7 310.632 72.0163 310.632 72.357C310.632 72.9897 310.681 73.6467 310.778 74.328C310.876 75.0093 311.046 75.642 311.289 76.226C311.533 76.81 311.873 77.2967 312.311 77.686C312.749 78.0267 313.309 78.197 313.99 78.197C315.304 78.197 316.594 77.905 317.859 77.321C319.125 76.737 320.317 76.0313 321.436 75.204C322.604 74.328 323.675 73.4033 324.648 72.43C325.67 71.408 326.571 70.4833 327.349 69.656C327.836 70.094 328.25 70.5077 328.59 70.897C326.4 73.817 323.991 76.2503 321.363 78.197C318.784 80.095 316.326 81.3117 313.99 81.847C310.632 81.4577 308.004 80.241 306.106 78.197C304.257 76.1043 303.332 73.598 303.332 70.678C303.332 68.6827 303.6 66.663 304.135 64.619C304.719 62.5263 305.498 60.531 306.471 58.633C307.493 56.6863 308.661 54.8613 309.975 53.158C311.338 51.4547 312.774 49.9703 314.282 48.705C315.84 47.4397 317.421 46.442 319.027 45.712C320.682 44.982 322.312 44.617 323.918 44.617C326.157 44.909 328.25 46.296 330.196 48.778ZM325.159 51.187C323.845 51.3817 322.483 51.917 321.071 52.793C319.66 53.669 318.322 54.837 317.056 56.297C315.84 57.757 314.72 59.4603 313.698 61.407C312.676 63.3537 311.873 65.4463 311.289 67.685C315.183 65.7383 318.419 63.3537 320.998 60.531C323.578 57.6597 324.965 54.545 325.159 51.187ZM331.824 77.54C332.067 76.1287 332.481 74.2793 333.065 71.992C333.698 69.656 334.428 67.1983 335.255 64.619C336.082 61.991 336.958 59.363 337.883 56.735C338.808 54.107 339.708 51.7467 340.584 49.654C341.217 48.1453 341.776 46.9773 342.263 46.15C342.75 45.274 343.285 44.544 343.869 43.96C344.55 44.0573 345.256 44.2277 345.986 44.471C346.716 44.7143 347.422 45.0063 348.103 45.347C348.784 45.6877 349.393 46.0527 349.928 46.442C350.463 46.7827 350.877 47.1233 351.169 47.464C349.855 49.0213 348.687 50.7977 347.665 52.793C346.692 54.7883 345.694 57.3433 344.672 60.458C347.3 58.122 349.612 55.8833 351.607 53.742C353.651 51.6007 355.549 49.216 357.301 46.588C357.593 46.3447 358.104 46.223 358.834 46.223C359.515 46.223 360.172 46.3447 360.805 46.588C361.438 46.7827 361.876 47.0747 362.119 47.464C361.243 49.8 360.805 52.1117 360.805 54.399C360.805 56.5403 361.121 58.1463 361.754 59.217C361.705 59.509 361.365 60.0687 360.732 60.896C360.148 61.7233 359.491 62.502 358.761 63.232C357.447 62.5507 356.279 61.626 355.257 60.458C354.235 59.2413 353.481 57.9273 352.994 56.516C350.707 58.122 348.76 59.7037 347.154 61.261C345.548 62.7697 344.161 64.473 342.993 66.371C341.874 68.2203 340.9 70.3617 340.073 72.795C339.294 75.2283 338.54 78.124 337.81 81.482C337.372 81.4333 336.837 81.263 336.204 80.971C335.62 80.7277 335.012 80.4113 334.379 80.022C333.795 79.6327 333.26 79.219 332.773 78.781C332.286 78.343 331.97 77.9293 331.824 77.54Z" fill="white"/>
<path d="M266.825 98.15C266.875 98.4333 266.908 98.6333 266.925 98.75C266.958 98.85 266.975 98.9917 266.975 99.175C266.975 99.725 266.85 100.242 266.6 100.725C266.367 101.192 266.042 101.525 265.625 101.725C265.292 101.275 264.883 100.892 264.4 100.575C263.917 100.242 263.383 99.975 262.8 99.775C262.233 99.5583 261.642 99.4 261.025 99.3C260.408 99.2 259.808 99.15 259.225 99.15C258.642 99.15 258.092 99.2 257.575 99.3C257.075 99.3833 256.625 99.5083 256.225 99.675C255.842 99.825 255.533 100.017 255.3 100.25C255.083 100.483 254.975 100.75 254.975 101.05C255.025 101.417 255.25 101.792 255.65 102.175C256.05 102.542 256.542 102.908 257.125 103.275C257.708 103.625 258.35 103.975 259.05 104.325C259.767 104.675 260.467 105.008 261.15 105.325C262 105.725 262.733 106.1 263.35 106.45C263.967 106.783 264.475 107.158 264.875 107.575C265.275 107.975 265.575 108.433 265.775 108.95C265.975 109.467 266.075 110.092 266.075 110.825C266.075 111.675 265.933 112.475 265.65 113.225C265.367 113.958 264.95 114.6 264.4 115.15C263.867 115.7 263.217 116.125 262.45 116.425C261.683 116.742 260.825 116.9 259.875 116.9C258.942 116.9 257.933 116.758 256.85 116.475C255.767 116.192 254.75 115.8 253.8 115.3C252.867 114.817 252.083 114.258 251.45 113.625C250.833 112.975 250.525 112.292 250.525 111.575C250.525 111.242 250.617 110.817 250.8 110.3C251 109.783 251.35 109.242 251.85 108.675C251.9 109.175 252.167 109.767 252.65 110.45C253.15 111.133 253.892 111.767 254.875 112.35C255.792 112.883 256.733 113.275 257.7 113.525C258.683 113.758 259.6 113.875 260.45 113.875C261.383 113.875 262.142 113.758 262.725 113.525C263.308 113.292 263.767 113.017 264.1 112.7C264.433 112.367 264.667 112.033 264.8 111.7C264.933 111.367 265.008 111.1 265.025 110.9C265.008 110.567 264.85 110.25 264.55 109.95C264.267 109.633 263.875 109.333 263.375 109.05C262.892 108.75 262.325 108.45 261.675 108.15C261.025 107.85 260.35 107.55 259.65 107.25C258.6 106.783 257.692 106.35 256.925 105.95C256.175 105.533 255.55 105.117 255.05 104.7C254.567 104.267 254.208 103.817 253.975 103.35C253.758 102.883 253.65 102.35 253.65 101.75C253.65 100.817 253.933 99.9333 254.5 99.1C255.067 98.2667 255.883 97.6333 256.95 97.2C257.483 96.9667 258.05 96.8 258.65 96.7C259.267 96.6 259.867 96.55 260.45 96.55C261.55 96.55 262.625 96.7 263.675 97C264.725 97.3 265.775 97.6833 266.825 98.15ZM268.819 105.425C268.736 105.325 268.661 105.117 268.594 104.8C268.527 104.467 268.494 104.183 268.494 103.95C268.927 103.983 269.344 104.017 269.744 104.05C270.144 104.067 270.511 104.083 270.844 104.1C271.094 103.6 271.361 103.108 271.644 102.625C271.944 102.125 272.227 101.675 272.494 101.275C272.777 100.858 273.036 100.508 273.269 100.225C273.519 99.9417 273.711 99.7583 273.844 99.675C274.011 99.675 274.219 99.7083 274.469 99.775C274.736 99.825 275.002 99.9 275.269 100C275.536 100.083 275.777 100.175 275.994 100.275C276.211 100.375 276.361 100.475 276.444 100.575C275.944 101.208 275.511 101.8 275.144 102.35C274.794 102.883 274.411 103.5 273.994 104.2C274.327 104.2 274.661 104.192 274.994 104.175C275.344 104.158 275.694 104.133 276.044 104.1C276.127 104.183 276.194 104.292 276.244 104.425C276.294 104.542 276.319 104.667 276.319 104.8C275.502 105.1 274.511 105.267 273.344 105.3C272.927 106.1 272.552 106.9 272.219 107.7C271.902 108.483 271.627 109.242 271.394 109.975C271.177 110.708 271.002 111.4 270.869 112.05C270.752 112.7 270.694 113.283 270.694 113.8C270.694 114.533 270.969 114.942 271.519 115.025C272.019 114.958 272.494 114.833 272.944 114.65C273.394 114.467 273.794 114.233 274.144 113.95C274.244 114.1 274.302 114.225 274.319 114.325C274.219 114.475 274.044 114.65 273.794 114.85C273.561 115.05 273.302 115.242 273.019 115.425C272.736 115.625 272.461 115.792 272.194 115.925C271.927 116.058 271.727 116.133 271.594 116.15C271.177 116.133 270.761 116.042 270.344 115.875C269.927 115.708 269.544 115.5 269.194 115.25C268.861 115 268.586 114.725 268.369 114.425C268.152 114.108 268.044 113.8 268.044 113.5C268.044 113.1 268.094 112.6 268.194 112C268.311 111.383 268.469 110.717 268.669 110C268.869 109.283 269.102 108.533 269.369 107.75C269.636 106.967 269.927 106.192 270.244 105.425H268.819ZM284.758 104.9C284.925 104.9 285.116 104.933 285.333 105C285.566 105.05 285.775 105.125 285.958 105.225C286.141 105.308 286.291 105.4 286.408 105.5C286.541 105.6 286.608 105.692 286.608 105.775C286.275 106.475 285.966 107.183 285.683 107.9C285.4 108.6 285.158 109.275 284.958 109.925C284.758 110.575 284.6 111.183 284.483 111.75C284.383 112.317 284.333 112.808 284.333 113.225C284.333 113.692 284.383 114.083 284.483 114.4C284.583 114.7 284.75 114.917 284.983 115.05C284.783 115.183 284.525 115.292 284.208 115.375C283.891 115.458 283.608 115.5 283.358 115.5C282.458 115.5 282.008 114.883 282.008 113.65C282.008 112.7 282.325 111.4 282.958 109.75C282.625 110.517 282.241 111.242 281.808 111.925C281.375 112.592 280.933 113.183 280.483 113.7C280.033 114.217 279.575 114.642 279.108 114.975C278.658 115.292 278.241 115.483 277.858 115.55C277.241 115.517 276.741 115.225 276.358 114.675C275.975 114.108 275.783 113.392 275.783 112.525C275.783 111.592 275.983 110.608 276.383 109.575C276.783 108.542 277.291 107.583 277.908 106.7C278.541 105.817 279.225 105.083 279.958 104.5C280.691 103.9 281.4 103.583 282.083 103.55C282.25 103.6 282.433 103.7 282.633 103.85C282.85 104 283.05 104.175 283.233 104.375C283.433 104.575 283.6 104.783 283.733 105C283.866 105.2 283.941 105.375 283.958 105.525C283.291 105.625 282.6 105.95 281.883 106.5C281.183 107.05 280.541 107.717 279.958 108.5C279.391 109.267 278.925 110.092 278.558 110.975C278.191 111.858 278.008 112.683 278.008 113.45C278.008 113.767 278.125 113.967 278.358 114.05C278.841 113.95 279.4 113.542 280.033 112.825C280.666 112.092 281.433 110.967 282.333 109.45C282.5 109.15 282.683 108.817 282.883 108.45C283.1 108.083 283.316 107.7 283.533 107.3C283.75 106.9 283.958 106.5 284.158 106.1C284.375 105.683 284.575 105.283 284.758 104.9ZM302.326 107.325C302.06 107.342 301.735 107.517 301.351 107.85C300.968 108.167 300.551 108.583 300.101 109.1C299.668 109.6 299.21 110.158 298.726 110.775C298.26 111.392 297.801 112.008 297.351 112.625C296.918 113.225 296.51 113.792 296.126 114.325C295.743 114.858 295.418 115.283 295.151 115.6C294.785 115.45 294.468 115.233 294.201 114.95C293.935 114.65 293.743 114.283 293.626 113.85C293.71 113.333 293.826 112.8 293.976 112.25C294.126 111.683 294.318 111.1 294.551 110.5C294.801 109.9 295.101 109.275 295.451 108.625C295.818 107.958 296.26 107.258 296.776 106.525C296.526 106.542 296.185 106.725 295.751 107.075C295.318 107.408 294.851 107.85 294.351 108.4C293.851 108.933 293.335 109.542 292.801 110.225C292.268 110.892 291.768 111.55 291.301 112.2C290.685 113.067 290.168 113.825 289.751 114.475C289.351 115.125 289.06 115.508 288.876 115.625C288.443 115.308 288.143 114.967 287.976 114.6C287.81 114.233 287.685 113.825 287.601 113.375C287.618 112.975 287.676 112.475 287.776 111.875C287.893 111.275 288.051 110.658 288.251 110.025C288.635 108.808 289.126 107.6 289.726 106.4C290.343 105.2 290.935 104.1 291.501 103.1C291.968 103.2 292.385 103.358 292.751 103.575C293.135 103.792 293.535 104.108 293.951 104.525C293.785 105.042 293.526 105.592 293.176 106.175C292.826 106.742 292.46 107.342 292.076 107.975C291.693 108.608 291.343 109.258 291.026 109.925C290.71 110.592 290.501 111.267 290.401 111.95C290.868 111.283 291.418 110.517 292.051 109.65C292.701 108.783 293.36 107.967 294.026 107.2C294.71 106.433 295.385 105.783 296.051 105.25C296.718 104.717 297.318 104.45 297.851 104.45C298.051 104.45 298.268 104.483 298.501 104.55C298.735 104.617 298.951 104.7 299.151 104.8C299.351 104.9 299.518 105 299.651 105.1C299.785 105.183 299.86 105.25 299.876 105.3C299.793 105.633 299.593 106.092 299.276 106.675C298.976 107.242 298.651 107.842 298.301 108.475C297.951 109.108 297.626 109.725 297.326 110.325C297.026 110.908 296.851 111.375 296.801 111.725C297.618 110.608 298.385 109.6 299.101 108.7C299.818 107.783 300.493 107 301.126 106.35C301.76 105.7 302.343 105.2 302.876 104.85C303.426 104.5 303.943 104.325 304.426 104.325C304.76 104.325 305.068 104.417 305.351 104.6C305.651 104.767 305.86 105.017 305.976 105.35C305.826 105.85 305.576 106.45 305.226 107.15C304.893 107.85 304.551 108.592 304.201 109.375C303.851 110.142 303.535 110.9 303.251 111.65C302.985 112.4 302.851 113.075 302.851 113.675C302.851 114.025 302.901 114.258 303.001 114.375C303.101 114.475 303.243 114.525 303.426 114.525C303.626 114.525 303.81 114.492 303.976 114.425C304.16 114.342 304.293 114.3 304.376 114.3C304.476 114.367 304.535 114.45 304.551 114.55C304.568 114.65 304.576 114.742 304.576 114.825C304.243 115.092 303.901 115.308 303.551 115.475C303.201 115.658 302.81 115.75 302.376 115.75C301.976 115.75 301.643 115.683 301.376 115.55C301.126 115.417 300.918 115.233 300.751 115C300.585 114.767 300.468 114.5 300.401 114.2C300.335 113.9 300.301 113.575 300.301 113.225C300.301 112.658 300.376 112.1 300.526 111.55C300.676 110.983 300.851 110.45 301.051 109.95C301.268 109.433 301.493 108.958 301.726 108.525C301.96 108.075 302.16 107.675 302.326 107.325ZM313.792 114.45C313.476 114.183 313.259 113.85 313.142 113.45C313.042 113.05 312.992 112.708 312.992 112.425C312.992 112.075 313.034 111.775 313.117 111.525C313.051 111.525 312.901 111.658 312.667 111.925C312.434 112.192 312.176 112.508 311.892 112.875C311.626 113.242 311.359 113.6 311.092 113.95C310.826 114.3 310.626 114.558 310.492 114.725C310.276 114.958 310.067 115.142 309.867 115.275C309.684 115.408 309.534 115.483 309.417 115.5C309.151 115.483 308.867 115.425 308.567 115.325C308.284 115.242 308.009 115.117 307.742 114.95C307.492 114.783 307.267 114.583 307.067 114.35C306.884 114.117 306.759 113.85 306.692 113.55C306.692 113.083 306.701 112.7 306.717 112.4C306.751 112.1 306.809 111.775 306.892 111.425C307.042 110.792 307.259 110.075 307.542 109.275C307.842 108.475 308.184 107.692 308.567 106.925C308.951 106.142 309.376 105.417 309.842 104.75C310.326 104.067 310.834 103.533 311.367 103.15C311.517 103.15 311.692 103.167 311.892 103.2C312.092 103.217 312.292 103.258 312.492 103.325C312.709 103.392 312.909 103.475 313.092 103.575C313.292 103.658 313.459 103.775 313.592 103.925C313.442 104.092 313.059 104.65 312.442 105.6C311.842 106.55 311.167 107.917 310.417 109.7C310.334 109.883 310.234 110.15 310.117 110.5C310.001 110.85 309.884 111.217 309.767 111.6C309.651 111.983 309.551 112.358 309.467 112.725C309.401 113.092 309.367 113.383 309.367 113.6C309.367 113.733 309.384 113.833 309.417 113.9C309.467 113.967 309.509 114.017 309.542 114.05C309.792 113.95 310.109 113.675 310.492 113.225C310.876 112.775 311.409 112.083 312.092 111.15C312.259 110.917 312.451 110.65 312.667 110.35C312.901 110.05 313.134 109.733 313.367 109.4C313.601 109.05 313.817 108.692 314.017 108.325C314.234 107.958 314.409 107.592 314.542 107.225C314.609 107.025 314.692 106.792 314.792 106.525C314.909 106.242 315.042 105.95 315.192 105.65C315.359 105.35 315.542 105.05 315.742 104.75C315.959 104.433 316.209 104.142 316.492 103.875C316.709 103.875 316.942 103.9 317.192 103.95C317.442 104 317.676 104.067 317.892 104.15C318.126 104.217 318.326 104.3 318.492 104.4C318.659 104.483 318.784 104.575 318.867 104.675C318.567 105.408 318.234 106.133 317.867 106.85C317.501 107.567 317.159 108.275 316.842 108.975C316.526 109.658 316.259 110.342 316.042 111.025C315.826 111.708 315.717 112.375 315.717 113.025C315.717 113.375 315.742 113.683 315.792 113.95C315.859 114.2 315.926 114.417 315.992 114.6C316.059 114.767 316.117 114.908 316.167 115.025C316.234 115.142 316.267 115.242 316.267 115.325C316.267 115.342 316.251 115.367 316.217 115.4C316.201 115.417 316.184 115.425 316.167 115.425C316.051 115.425 315.901 115.4 315.717 115.35C315.534 115.3 315.326 115.225 315.092 115.125C314.876 115.042 314.651 114.942 314.417 114.825C314.201 114.708 313.992 114.583 313.792 114.45ZM318.746 114.5C318.829 114.017 318.971 113.383 319.171 112.6C319.388 111.8 319.638 110.958 319.921 110.075C320.204 109.175 320.504 108.275 320.821 107.375C321.138 106.475 321.446 105.667 321.746 104.95C321.963 104.433 322.154 104.033 322.321 103.75C322.488 103.45 322.671 103.2 322.871 103C323.104 103.033 323.346 103.092 323.596 103.175C323.846 103.258 324.088 103.358 324.321 103.475C324.554 103.592 324.763 103.717 324.946 103.85C325.129 103.967 325.271 104.083 325.371 104.2C324.921 104.733 324.521 105.342 324.171 106.025C323.838 106.708 323.496 107.583 323.146 108.65C324.046 107.85 324.838 107.083 325.521 106.35C326.221 105.617 326.871 104.8 327.471 103.9C327.571 103.817 327.746 103.775 327.996 103.775C328.229 103.775 328.454 103.817 328.671 103.9C328.888 103.967 329.038 104.067 329.121 104.2C328.821 105 328.671 105.792 328.671 106.575C328.671 107.308 328.779 107.858 328.996 108.225C328.979 108.325 328.863 108.517 328.646 108.8C328.446 109.083 328.221 109.35 327.971 109.6C327.521 109.367 327.121 109.05 326.771 108.65C326.421 108.233 326.163 107.783 325.996 107.3C325.213 107.85 324.546 108.392 323.996 108.925C323.446 109.442 322.971 110.025 322.571 110.675C322.188 111.308 321.854 112.042 321.571 112.875C321.304 113.708 321.046 114.7 320.796 115.85C320.646 115.833 320.463 115.775 320.246 115.675C320.046 115.592 319.838 115.483 319.621 115.35C319.421 115.217 319.238 115.075 319.071 114.925C318.904 114.775 318.796 114.633 318.746 114.5ZM338.054 104.9C338.221 104.9 338.412 104.933 338.629 105C338.862 105.05 339.071 105.125 339.254 105.225C339.437 105.308 339.587 105.4 339.704 105.5C339.837 105.6 339.904 105.692 339.904 105.775C339.571 106.475 339.262 107.183 338.979 107.9C338.696 108.6 338.454 109.275 338.254 109.925C338.054 110.575 337.896 111.183 337.779 111.75C337.679 112.317 337.629 112.808 337.629 113.225C337.629 113.692 337.679 114.083 337.779 114.4C337.879 114.7 338.046 114.917 338.279 115.05C338.079 115.183 337.821 115.292 337.504 115.375C337.187 115.458 336.904 115.5 336.654 115.5C335.754 115.5 335.304 114.883 335.304 113.65C335.304 112.7 335.621 111.4 336.254 109.75C335.921 110.517 335.537 111.242 335.104 111.925C334.671 112.592 334.229 113.183 333.779 113.7C333.329 114.217 332.871 114.642 332.404 114.975C331.954 115.292 331.537 115.483 331.154 115.55C330.537 115.517 330.037 115.225 329.654 114.675C329.271 114.108 329.079 113.392 329.079 112.525C329.079 111.592 329.279 110.608 329.679 109.575C330.079 108.542 330.587 107.583 331.204 106.7C331.837 105.817 332.521 105.083 333.254 104.5C333.987 103.9 334.696 103.583 335.379 103.55C335.546 103.6 335.729 103.7 335.929 103.85C336.146 104 336.346 104.175 336.529 104.375C336.729 104.575 336.896 104.783 337.029 105C337.162 105.2 337.237 105.375 337.254 105.525C336.587 105.625 335.896 105.95 335.179 106.5C334.479 107.05 333.837 107.717 333.254 108.5C332.687 109.267 332.221 110.092 331.854 110.975C331.487 111.858 331.304 112.683 331.304 113.45C331.304 113.767 331.421 113.967 331.654 114.05C332.137 113.95 332.696 113.542 333.329 112.825C333.962 112.092 334.729 110.967 335.629 109.45C335.796 109.15 335.979 108.817 336.179 108.45C336.396 108.083 336.612 107.7 336.829 107.3C337.046 106.9 337.254 106.5 337.454 106.1C337.671 105.683 337.871 105.283 338.054 104.9ZM341.099 113.325C341.099 113.175 341.108 112.992 341.124 112.775C341.158 112.542 341.208 112.242 341.274 111.875C341.341 111.492 341.424 111.033 341.524 110.5C341.641 109.967 341.783 109.325 341.949 108.575C341.983 108.408 342.058 108.142 342.174 107.775C342.291 107.408 342.441 107.025 342.624 106.625C342.824 106.208 343.058 105.808 343.324 105.425C343.608 105.042 343.941 104.758 344.324 104.575C344.608 104.642 344.983 104.817 345.449 105.1C345.916 105.367 346.316 105.742 346.649 106.225C346.266 106.658 345.941 107.092 345.674 107.525C345.424 107.958 345.191 108.408 344.974 108.875C344.774 109.342 344.583 109.825 344.399 110.325C344.233 110.825 344.041 111.35 343.824 111.9C343.641 112.367 343.474 112.85 343.324 113.35C343.174 113.833 343.091 114.258 343.074 114.625C343.074 114.925 343.066 115.133 343.049 115.25C343.049 115.383 343.008 115.45 342.924 115.45C342.858 115.45 342.724 115.408 342.524 115.325C342.324 115.242 342.116 115.117 341.899 114.95C341.699 114.767 341.516 114.542 341.349 114.275C341.183 114.008 341.099 113.692 341.099 113.325ZM345.874 102.475C345.874 102.375 345.899 102.225 345.949 102.025C345.866 101.942 345.791 101.817 345.724 101.65C345.674 101.483 345.649 101.333 345.649 101.2C345.649 101.05 345.666 100.85 345.699 100.6C345.749 100.333 345.808 100.05 345.874 99.75C345.941 99.45 346.024 99.1417 346.124 98.825C346.224 98.4917 346.324 98.1917 346.424 97.925C346.624 97.925 346.866 97.9833 347.149 98.1C347.449 98.2 347.749 98.3417 348.049 98.525C348.349 98.6917 348.624 98.8833 348.874 99.1C349.124 99.3 349.316 99.4917 349.449 99.675C349.266 99.8583 349.024 100.117 348.724 100.45C348.424 100.767 348.133 101.108 347.849 101.475C347.566 101.825 347.308 102.158 347.074 102.475C346.841 102.792 346.691 103.017 346.624 103.15C346.424 103.117 346.249 103.033 346.099 102.9C345.949 102.75 345.874 102.608 345.874 102.475Z" fill="white"/>
<path d="M62.8042 112C61.1548 112 59.7492 111.519 58.5875 110.558C57.4258 109.597 56.8449 108.405 56.8449 106.98C56.8449 106.325 56.9718 105.695 57.2256 105.091C57.4793 104.487 57.9115 103.949 58.5221 103.479L62.7923 100.019L67.0566 103.479C67.6672 103.953 68.0994 104.495 68.3531 105.106C68.6108 105.717 68.7397 106.357 68.7397 107.027C68.7397 108.417 68.1628 109.592 67.009 110.553C65.8552 111.514 64.4536 111.997 62.8042 112ZM42.2739 104.777L38.4319 101.451L53.5739 88.3425L57.4159 91.6684L42.2739 104.777ZM80.6344 97.0538L74.1161 91.411L80.6344 85.7682L87.1527 91.411L80.6344 97.0538ZM27.1081 97.0538L20.5898 91.411L27.1081 85.7682L33.6264 91.411L27.1081 97.0538ZM29.7368 78.931C21.4779 78.931 14.4581 76.4271 8.67721 71.4192C2.89637 66.4114 0.00396491 60.3344 0 53.1883C0 46.5295 2.59305 40.77 7.77916 35.9098C12.9653 31.0496 19.4578 28.2488 27.2568 27.5074C30.2067 22.6781 34.239 18.8853 39.3537 16.1291C44.4685 13.3729 50.17 11.9966 56.4584 12C65.0226 12 72.3735 14.4507 78.5112 19.3521C84.6449 24.2535 88.2133 30.3614 89.2165 37.6757C96.5159 38.0567 102.305 40.2534 106.583 44.2659C110.861 48.2783 113 52.9789 113 58.3677C113 64.0551 110.686 68.905 106.059 72.9175C101.436 76.9265 95.82 78.931 89.2105 78.931H29.7368ZM29.7368 73.7824H89.2105C94.135 73.7824 98.3397 72.2739 101.825 69.2569C105.31 66.2398 107.053 62.5998 107.053 58.3368C107.053 54.0738 105.31 50.4338 101.825 47.4168C98.3397 44.3997 94.135 42.8912 89.2105 42.8912H83.2632V40.3169C83.2632 33.9465 80.6404 28.4925 75.3948 23.9549C70.1492 19.4173 63.845 17.1485 56.4822 17.1485C51.1295 17.1485 46.2507 18.4065 41.8457 20.9224C37.4446 23.4418 34.128 26.8312 31.8957 31.0908L31.1939 32.5941H29.4395C22.9687 32.7898 17.4377 34.8732 12.8463 38.8445C8.24702 42.8157 5.94737 47.597 5.94737 53.1883C5.94737 58.8757 8.26882 63.7308 12.9117 67.7535C17.5546 71.7762 23.163 73.7858 29.7368 73.7824Z" fill="#AAF5F5"/>
</svg>
